<svg width="16" height="18" viewBox="0 0 16 18" fill="none" xmlns="http://www.w3.org/2000/svg">
<path fill-rule="evenodd" clip-rule="evenodd" d="M5.333 13.333H1.778C0.796428 13.333 0.000552065 12.5376 0 11.556V1.778C0 0.796038 0.796038 0 1.778 0H8.889C9.87096 0 10.667 0.796038 10.667 1.778V4.444H13.334L16 7.111V16C16 16.982 15.204 17.778 14.222 17.778H7.111C6.12904 17.778 5.333 16.982 5.333 16V13.333ZM5.333 11.555V6.222C5.333 5.24004 6.12904 4.444 7.111 4.444H8.889V1.778H1.778V11.556L5.333 11.555ZM7.111 6.222H12.6L14.222 7.847V16H7.111V6.222Z" fill="#8492A6"/>
</svg>
