<svg width="16" height="16" viewBox="0 0 16 16" fill="none" xmlns="http://www.w3.org/2000/svg">
<path fill-rule="evenodd" clip-rule="evenodd" d="M11.2 0H4.8C2.14903 0 0 2.14903 0 4.8V11.2C0 13.851 2.14903 16 4.8 16H11.2C13.851 16 16 13.851 16 11.2V4.8C16 2.14903 13.851 0 11.2 0ZM1.6 4.8C1.6 3.03269 3.03269 1.6 4.8 1.6H11.2C12.9673 1.6 14.4 3.03269 14.4 4.8V11.2C14.4 12.0487 14.0629 12.8626 13.4627 13.4627C12.8626 14.0629 12.0487 14.4 11.2 14.4H4.8C3.95131 14.4 3.13737 14.0629 2.53726 13.4627C1.93714 12.8626 1.6 12.0487 1.6 11.2V4.8ZM9.6 7.2H12C12.4418 7.2 12.8 7.55817 12.8 8C12.8 8.44183 12.4418 8.8 12 8.8H9.6C9.15817 8.8 8.8 8.44183 8.8 8C8.8 7.55817 9.15817 7.2 9.6 7.2ZM12 10.4H8C7.55817 10.4 7.2 10.7582 7.2 11.2C7.2 11.6418 7.55817 12 8 12H12C12.4418 12 12.8 11.6418 12.8 11.2C12.8 10.7582 12.4418 10.4 12 10.4ZM8 4H12C12.4418 4 12.8 4.35817 12.8 4.8C12.8 5.24183 12.4418 5.6 12 5.6H8C7.55817 5.6 7.2 5.24183 7.2 4.8C7.2 4.35817 7.55817 4 8 4ZM4.6635 8.1925L6.362 6.494C6.67515 6.18224 7.18174 6.18335 7.4935 6.4965C7.80526 6.80965 7.80415 7.31624 7.491 7.628L5.229 9.89C5.07895 10.0402 4.87533 10.1246 4.663 10.1246C4.45067 10.1246 4.24705 10.0402 4.097 9.89L2.966 8.76C2.65368 8.44685 2.65435 7.93982 2.9675 7.6275C3.28065 7.31518 3.78768 7.31585 4.1 7.629L4.6635 8.1925Z" fill="#8492A6"/>
</svg>
