<svg width="16" height="16" viewBox="0 0 16 16" fill="none" xmlns="http://www.w3.org/2000/svg">
<path fill-rule="evenodd" clip-rule="evenodd" d="M8 16C3.58172 16 0 12.4183 0 8C0 3.58172 3.58172 0 8 0C12.4183 0 16 3.58172 16 8C16 10.1217 15.1571 12.1566 13.6569 13.6569C12.1566 15.1571 10.1217 16 8 16ZM7.2 10.4V8.8C5.87452 8.8 4.8 7.72548 4.8 6.4C4.8 5.07452 5.87452 4 7.2 4V3.2C7.2 2.91419 7.35248 2.65009 7.6 2.50718C7.84752 2.36427 8.15248 2.36427 8.4 2.50718C8.64752 2.65009 8.8 2.91419 8.8 3.2V4H8.818C10.1335 4 11.2 5.06646 11.2 6.382C11.2 6.82383 10.8418 7.182 10.4 7.182C9.95817 7.182 9.6 6.82383 9.6 6.382C9.6 6.1746 9.51761 5.9757 9.37096 5.82904C9.2243 5.68239 9.0254 5.6 8.818 5.6H8.8V7.2C10.1255 7.2 11.2 8.27452 11.2 9.6C11.2 10.9255 10.1255 12 8.8 12V12.8C8.8 13.0858 8.64752 13.3499 8.4 13.4928C8.15248 13.6357 7.84752 13.6357 7.6 13.4928C7.35248 13.3499 7.2 13.0858 7.2 12.8V12H7.159C5.85616 12 4.8 10.9438 4.8 9.641C4.8 9.19917 5.15817 8.841 5.6 8.841C6.04183 8.841 6.4 9.19917 6.4 9.641C6.40055 10.06 6.74004 10.3994 7.159 10.4H7.2ZM8.8 10.4C9.24183 10.4 9.6 10.0418 9.6 9.6C9.6 9.15817 9.24183 8.8 8.8 8.8V10.4ZM6.4 6.4C6.4 5.95817 6.75817 5.6 7.2 5.6V7.2C6.75817 7.2 6.4 6.84183 6.4 6.4ZM14.4 8C14.4 11.5346 11.5346 14.4 8 14.4C4.46538 14.4 1.6 11.5346 1.6 8C1.6 4.46538 4.46538 1.6 8 1.6C11.5346 1.6 14.4 4.46538 14.4 8Z" fill="#8492A6"/>
</svg>
