<svg width="16" height="15" viewBox="0 0 16 15" fill="none" xmlns="http://www.w3.org/2000/svg">
<path fill-rule="evenodd" clip-rule="evenodd" d="M13.6 1.6H12.8V0.8C12.8 0.358172 12.4418 0 12 0C11.5582 0 11.2 0.358172 11.2 0.8V1.6H4.8V0.8C4.8 0.514188 4.64752 0.250086 4.4 0.10718C4.15248 -0.0357266 3.84752 -0.0357266 3.6 0.10718C3.35248 0.250086 3.2 0.514188 3.2 0.8V1.6H2.4C1.07452 1.6 0 2.67452 0 4V12C0 13.3255 1.07452 14.4 2.4 14.4H13.6C14.9255 14.4 16 13.3255 16 12V4C16 2.67452 14.9255 1.6 13.6 1.6ZM14.4 4C14.4 3.55817 14.0418 3.2 13.6 3.2H12.8V4C12.8 4.44183 12.4418 4.8 12 4.8C11.5582 4.8 11.2 4.44183 11.2 4V3.2H4.8V4C4.8 4.44183 4.44183 4.8 4 4.8C3.55817 4.8 3.2 4.44183 3.2 4V3.2H2.4C1.95817 3.2 1.6 3.55817 1.6 4V5.6H14.4V4ZM14.4 7.2H1.6V12C1.6 12.2122 1.68429 12.4157 1.83431 12.5657C1.98434 12.7157 2.18783 12.8 2.4 12.8H13.6C14.0418 12.8 14.4 12.4418 14.4 12V7.2Z" fill="#8492A6"/>
</svg>
