<svg
              width="20"
              height="20"
              viewBox="0 0 20 20"
              fill="none"
              xmlns="http://www.w3.org/2000/svg"
            >
              <path
                fill-rule="evenodd"
                clip-rule="evenodd"
                d="M18.926 10C18.926 9.23864 19.3365 8.53645 20 8.163V8.162L19.278 5.758C18.4874 5.89401 17.6882 5.56879 17.2172 4.91938C16.7461 4.26998 16.6852 3.4093 17.06 2.7L15 1.1C14.446 1.55316 13.6994 1.69299 13.019 1.471C12.3363 1.24956 11.814 0.694793 11.634 0L8.342 0.008C8.15944 0.698496 7.63845 1.24887 6.959 1.469C6.27952 1.6908 5.53388 1.55177 4.98 1.1L2.922 2.717C3.28634 3.42329 3.22184 4.27456 2.75525 4.9179C2.28866 5.56123 1.49952 5.88694 0.715 5.76L0 8.175C0.652095 8.55101 1.05307 9.24727 1.051 10C1.05182 10.7524 0.651185 11.4481 0 11.825L0.715 14.24C1.50099 14.109 2.29344 14.4341 2.76093 15.0794C3.22843 15.7247 3.29043 16.579 2.921 17.285L4.981 18.9C5.53425 18.4483 6.27918 18.3087 6.95845 18.5295C7.63771 18.7503 8.15816 19.3013 8.34 19.992L11.63 20C11.8081 19.3039 12.3298 18.7472 13.0128 18.5242C13.6959 18.3013 14.4455 18.443 15 18.9L17.065 17.3C16.6908 16.5908 16.752 15.7305 17.2229 15.0815C17.6939 14.4324 18.4927 14.1073 19.283 14.243L20 11.837C19.3365 11.4636 18.926 10.7614 18.926 10ZM14.823 3.492V3.68L14.824 3.681C14.824 5.47522 15.9884 7.06191 17.7 7.6C16.6693 9.034 16.6693 10.966 17.7 12.4C15.9221 12.9583 14.7428 14.6434 14.827 16.505L14.747 16.567C13.1548 16.1328 11.4574 16.6955 10.44 17.995H9.54C8.52606 16.7019 6.83805 16.1391 5.251 16.565L5.151 16.49C5.22842 14.6342 4.0509 12.9573 2.279 12.4C2.78165 11.7008 3.05171 10.8612 3.051 10C3.05212 9.13877 2.78201 8.29906 2.279 7.6C4.05398 7.04383 5.23376 5.3644 5.155 3.506L5.25 3.43C6.83736 3.85631 8.5259 3.29347 9.54 2H10.44C11.4563 3.29861 13.1516 3.86202 14.743 3.43L14.823 3.492ZM10 14C7.79086 14 6 12.2091 6 10C6 7.79086 7.79086 6 10 6C12.2091 6 14 7.79086 14 10C14 11.0609 13.5786 12.0783 12.8284 12.8284C12.0783 13.5786 11.0609 14 10 14ZM12 10C12 11.1046 11.1046 12 10 12C8.89543 12 8 11.1046 8 10C8 8.89543 8.89543 8 10 8C11.1046 8 12 8.89543 12 10Z"
                fill="#C0CCDA"
              />
            </svg>