<svg
              width="18"
              height="20"
              viewBox="0 0 18 20"
              fill="none"
              xmlns="http://www.w3.org/2000/svg"
            >
              <path
                fill-rule="evenodd"
                clip-rule="evenodd"
                d="M12 17C12 18.6569 10.6569 20 9 20C7.34315 20 6.00001 18.6569 6.00001 17H5.18245e-06C-0.00274454 14.4384 1.08884 11.9976 3.00001 10.292V6C3.00001 3.85641 4.1436 1.87564 6.00001 0.803848C7.85641 -0.267949 10.1436 -0.267949 12 0.803848C13.8564 1.87564 15 3.85641 15 6V10.292C16.9112 11.9976 18.0028 14.4384 18 17H12ZM13.666 11.782L13 11.182V6C13 3.79086 11.2091 2 9.00001 2C6.79087 2 5.00001 3.79086 5.00001 6V11.186L4.334 11.786C3.36817 12.6474 2.66054 13.76 2.29001 15H15.71C15.3401 13.7586 14.6325 12.6445 13.666 11.782ZM10 17C10 17.5523 9.55229 18 9.00001 18C8.44772 18 8.00001 17.5523 8.00001 17H10Z"
                fill="#C0CCDA"
              />
            </svg>