<svg width="16" height="17" viewBox="0 0 16 17" fill="none" xmlns="http://www.w3.org/2000/svg">
<path fill-rule="evenodd" clip-rule="evenodd" d="M9.6 0.8C9.6 1.24183 9.95817 1.6 10.4 1.6C11.2837 1.6 12 2.31634 12 3.2V4.8C12 5.68366 11.2837 6.4 10.4 6.4C9.95817 6.4 9.6 6.75817 9.6 7.2C9.6 7.64183 9.95817 8 10.4 8C12.1673 8 13.6 6.56731 13.6 4.8V3.2C13.6 1.43269 12.1673 0 10.4 0C9.95817 0 9.6 0.358172 9.6 0.8ZM5.6 0.8C7.36731 0.8 8.8 2.23269 8.8 4V5.6C8.8 7.36731 7.36731 8.8 5.6 8.8C3.83269 8.8 2.4 7.36731 2.4 5.6V4C2.4 2.23269 3.83269 0.8 5.6 0.8ZM2.827 8.856C3.09499 8.74074 3.40448 8.7805 3.63464 8.95975C3.8648 9.13901 3.97914 9.42934 3.93301 9.71739C3.88689 10.0055 3.68762 10.2456 3.413 10.344C2.31886 10.7753 1.5998 11.8319 1.6 13.008V14.4C1.6 14.6122 1.68429 14.8157 1.83431 14.9657C1.98434 15.1157 2.18783 15.2 2.4 15.2H8.8C9.24183 15.2 9.6 14.8418 9.6 14.4V13.082C9.5999 11.8676 8.84988 10.7793 7.715 10.347C7.43835 10.2523 7.23542 10.0142 7.18576 9.726C7.1361 9.43783 7.24762 9.14552 7.47661 8.96367C7.7056 8.78181 8.01556 8.73938 8.285 8.853C10.0402 9.52155 11.2002 11.2047 11.2 13.083V14.4C11.2 15.7255 10.1255 16.8 8.8 16.8H2.4C1.07452 16.8 0 15.7255 0 14.4V13.008C0.000136969 11.1747 1.12135 9.52802 2.827 8.856ZM4 4C4 3.11634 4.71634 2.4 5.6 2.4C6.48366 2.4 7.2 3.11634 7.2 4V5.6C7.2 6.48366 6.48366 7.2 5.6 7.2C4.71634 7.2 4 6.48366 4 5.6V4ZM12.8 16C12.3582 16 12 15.6418 12 15.2C12 14.7582 12.3582 14.4 12.8 14.4H13.6C14.0418 14.4 14.4 14.0418 14.4 13.6V12.13C14.3996 10.9639 13.6533 9.92877 12.547 9.56C12.2715 9.4732 12.0642 9.24463 12.0046 8.96199C11.945 8.67934 12.0424 8.38653 12.2595 8.19591C12.4765 8.00529 12.7794 7.94646 13.052 8.042C14.812 8.62823 15.9995 10.2749 16 12.13V13.6C16 14.9255 14.9255 16 13.6 16H12.8Z" fill="#8492A6"/>
</svg>
