<svg width="16" height="16" viewBox="0 0 16 16" fill="none" xmlns="http://www.w3.org/2000/svg">
<path fill-rule="evenodd" clip-rule="evenodd" d="M8 16C3.58172 16 0 12.4183 0 8C0 3.58172 3.58172 0 8 0C12.4183 0 16 3.58172 16 8C16 10.1217 15.1571 12.1566 13.6569 13.6569C12.1566 15.1571 10.1217 16 8 16ZM8.8 7.2H12C12.4418 7.2 12.8 7.55817 12.8 8C12.8 8.44183 12.4418 8.8 12 8.8H8C7.55817 8.8 7.2 8.44183 7.2 8V3.2C7.2 2.75817 7.55817 2.4 8 2.4C8.44183 2.4 8.8 2.75817 8.8 3.2V7.2ZM14.4 8C14.4 11.5346 11.5346 14.4 8 14.4C4.46538 14.4 1.6 11.5346 1.6 8C1.6 4.46538 4.46538 1.6 8 1.6C11.5346 1.6 14.4 4.46538 14.4 8Z" fill="#8492A6"/>
</svg>
