<svg width="12" height="18" viewBox="0 0 12 18" fill="none" xmlns="http://www.w3.org/2000/svg">
<path fill-rule="evenodd" clip-rule="evenodd" d="M6 0C7.89378 0 9.429 1.53522 9.429 3.429V5.143C9.39705 7.01368 7.87146 8.51344 6.0005 8.51344C4.12954 8.51344 2.60395 7.01368 2.572 5.143V3.429C2.572 1.53561 4.10661 0.000552171 6 0ZM3.029 8.631C3.31598 8.508 3.64715 8.55081 3.89342 8.74274C4.13969 8.93467 4.26209 9.24535 4.21291 9.55368C4.16373 9.86201 3.95076 10.1192 3.657 10.225C2.48436 10.6872 1.71371 11.8196 1.714 13.08V14.571C1.714 15.0443 2.09769 15.428 2.571 15.428H9.429C9.90231 15.428 10.286 15.0443 10.286 14.571V13.16C10.2861 11.8585 9.48231 10.6922 8.266 10.229C7.96836 10.1285 7.74959 9.87313 7.69587 9.5636C7.64216 9.25407 7.76211 8.93995 8.00847 8.74501C8.25483 8.55007 8.58811 8.50556 8.877 8.629C10.757 9.3454 11.9995 11.1481 12 13.16V14.572C12 15.2539 11.7291 15.9078 11.247 16.39C10.7648 16.8721 10.1109 17.143 9.429 17.143H2.571C1.88896 17.143 1.23486 16.872 0.752675 16.3896C0.270491 15.9072 -0.0002647 15.253 1.94188e-07 14.571V13.08C0.000453499 11.116 1.20172 9.35197 3.029 8.632V8.631ZM4.78767 2.21637C5.10913 1.89472 5.54525 1.714 6 1.714C6.45493 1.71373 6.8913 1.89434 7.21298 2.21602C7.53466 2.5377 7.71527 2.97407 7.715 3.429V5.143C7.715 6.08989 6.94739 6.8575 6.0005 6.8575C5.05361 6.8575 4.286 6.08989 4.286 5.143V3.429C4.28574 2.97425 4.4662 2.53803 4.78767 2.21637Z" fill="#8492A6"/>
</svg>
