<svg width="14" height="18" viewBox="0 0 14 18" fill="none" xmlns="http://www.w3.org/2000/svg">
<path fill-rule="evenodd" clip-rule="evenodd" d="M11.375 0H2.625C1.17525 0 0 1.17525 0 2.625V14.875C0 16.3247 1.17525 17.5 2.625 17.5H11.375C12.8247 17.5 14 16.3247 14 14.875V2.625C14 1.17525 12.8247 0 11.375 0ZM1.75 2.625C1.75 2.14175 2.14175 1.75 2.625 1.75H11.375C11.8582 1.75 12.25 2.14175 12.25 2.625V14.875C12.25 15.3582 11.8582 15.75 11.375 15.75H2.625C2.14175 15.75 1.75 15.3582 1.75 14.875V2.625ZM4.375 13.125H6.125C6.60825 13.125 7 13.5168 7 14C7 14.4832 6.60825 14.875 6.125 14.875H4.375C3.89175 14.875 3.5 14.4832 3.5 14C3.5 13.5168 3.89175 13.125 4.375 13.125ZM10.5 3.5C10.5 3.01675 10.1082 2.625 9.625 2.625C9.14175 2.625 8.75 3.01675 8.75 3.5C8.75 3.98325 9.14175 4.375 9.625 4.375C10.1082 4.375 10.5 3.98325 10.5 3.5ZM9.625 5.25C10.1082 5.25 10.5 5.64175 10.5 6.125C10.5 6.60825 10.1082 7 9.625 7C9.14175 7 8.75 6.60825 8.75 6.125C8.75 5.64175 9.14175 5.25 9.625 5.25ZM9.625 10.5H4.375C3.89175 10.5 3.5 10.8918 3.5 11.375C3.5 11.8582 3.89175 12.25 4.375 12.25H9.625C10.1082 12.25 10.5 11.8582 10.5 11.375C10.5 10.8918 10.1082 10.5 9.625 10.5ZM4.375 7.875H9.625C10.1082 7.875 10.5 8.26675 10.5 8.75C10.5 9.23325 10.1082 9.625 9.625 9.625H4.375C3.89175 9.625 3.5 9.23325 3.5 8.75C3.5 8.26675 3.89175 7.875 4.375 7.875ZM6.563 2.625H4.813C4.46469 2.62473 4.13057 2.76298 3.88428 3.00928C3.63798 3.25557 3.49973 3.58969 3.5 3.938V5.688C3.5 6.03614 3.63837 6.37 3.88463 6.61608C4.13089 6.86215 4.46486 7.00027 4.813 7H6.563C7.2876 7 7.875 6.4126 7.875 5.688V3.938C7.87527 3.58986 7.73715 3.25589 7.49108 3.00963C7.245 2.76337 6.91114 2.625 6.563 2.625Z" fill="#8492A6"/>
</svg>
