<svg width="14" height="12" viewBox="0 0 14 12" fill="none" xmlns="http://www.w3.org/2000/svg">
<path d="M11.4335 3.46659H6.62954L6.33123 2.62169C6.28738 2.49822 6.20634 2.39136 6.09928 2.31582C5.99221 2.24029 5.86437 2.19978 5.73334 2.19988H2.56657C2.39859 2.19988 2.2375 2.2666 2.11872 2.38538C1.99994 2.50416 1.93321 2.66525 1.93321 2.83323V9.16678C1.93321 9.33475 1.99994 9.49585 2.11872 9.61463C2.2375 9.7334 2.39859 9.80013 2.56657 9.80013H11.4335C11.6015 9.80013 11.7626 9.7334 11.8814 9.61463C12.0002 9.49585 12.0669 9.33475 12.0669 9.16678V4.09994C12.0669 3.93196 12.0002 3.77087 11.8814 3.65209C11.7626 3.53331 11.6015 3.46659 11.4335 3.46659ZM7.52573 2.19988H11.4335C11.9375 2.19988 12.4208 2.40006 12.7771 2.75639C13.1334 3.11272 13.3336 3.59601 13.3336 4.09994V9.16678C13.3336 9.67071 13.1334 10.154 12.7771 10.5103C12.4208 10.8667 11.9375 11.0668 11.4335 11.0668H2.56657C2.06264 11.0668 1.57935 10.8667 1.22302 10.5103C0.866689 10.154 0.666504 9.67071 0.666504 9.16678L0.666504 2.83323C0.666504 2.3293 0.866689 1.84601 1.22302 1.48968C1.57935 1.13335 2.06264 0.933167 2.56657 0.933167L5.73334 0.933167C6.5605 0.933167 7.26416 1.46202 7.52573 2.19988Z" fill="#8492A6"/>
</svg>
