<svg width="10" height="17" viewBox="0 0 10 17" fill="none" xmlns="http://www.w3.org/2000/svg">
<path fill-rule="evenodd" clip-rule="evenodd" d="M0 0V16.667H2.641C2.99292 15.666 3.93841 14.9961 4.9995 14.9961C6.06059 14.9961 7.00608 15.666 7.358 16.667H10V0H7.358C7.00552 1.00012 6.06042 1.66907 5 1.669C3.93958 1.66907 2.99448 1.00012 2.642 0H0ZM6.667 7.5H8.333L8.334 15C7.54728 13.9504 6.31219 13.3327 5.0005 13.3327C3.68881 13.3327 2.45372 13.9504 1.667 15V7.5H3.333C3.79333 7.5 4.1665 7.12683 4.1665 6.6665C4.1665 6.20617 3.79333 5.833 3.333 5.833H1.667V1.668C2.45368 2.71731 3.68855 3.33492 5 3.335C6.31163 3.33469 7.54653 2.71668 8.333 1.667V5.833H6.667C6.20667 5.833 5.8335 6.20617 5.8335 6.6665C5.8335 7.12683 6.20667 7.5 6.667 7.5Z" fill="#8492A6"/>
</svg>
