<svg width="14" height="10" viewBox="0 0 14 10" fill="none" xmlns="http://www.w3.org/2000/svg">
<path d="M0.985735 9.59196C0.624549 8.76438 0.438715 7.87095 0.439947 6.96798C0.439947 3.34493 3.37683 0.408039 6.99989 0.408039C10.6229 0.408039 13.5598 3.34493 13.5598 6.96798C13.5611 7.87095 13.3752 8.76438 13.014 9.59196H0.985735ZM12.0825 8.27997C12.2816 7.50476 12.3008 6.69429 12.1385 5.91054C11.9763 5.12679 11.6369 4.39053 11.1464 3.7581C10.6559 3.12566 10.0272 2.6138 9.30844 2.26168C8.5897 1.90955 7.79993 1.72648 6.99956 1.72648C6.19919 1.72648 5.40943 1.90955 4.69068 2.26168C3.97194 2.6138 3.34326 3.12566 2.85273 3.7581C2.36221 4.39053 2.02284 5.12679 1.86058 5.91054C1.69832 6.69429 1.71748 7.50476 1.91659 8.27997H12.0825ZM6.99989 3.68801C6.82591 3.68801 6.65906 3.6189 6.53603 3.49587C6.41301 3.37285 6.3439 3.206 6.3439 3.03202C6.3439 2.85804 6.41301 2.69118 6.53603 2.56816C6.65906 2.44514 6.82591 2.37602 6.99989 2.37602C7.17387 2.37602 7.34073 2.44514 7.46375 2.56816C7.58677 2.69118 7.65588 2.85804 7.65588 3.03202C7.65588 3.206 7.58677 3.37285 7.46375 3.49587C7.34073 3.6189 7.17387 3.68801 6.99989 3.68801ZM3.71992 6.31199C3.54594 6.31199 3.37908 6.24287 3.25606 6.11985C3.13304 5.99683 3.06392 5.82997 3.06392 5.65599C3.06392 5.48201 3.13304 5.31516 3.25606 5.19214C3.37908 5.06911 3.54594 5 3.71992 5C3.8939 5 4.06075 5.06911 4.18378 5.19214C4.3068 5.31516 4.37591 5.48201 4.37591 5.65599C4.37591 5.82997 4.3068 5.99683 4.18378 6.11985C4.06075 6.24287 3.8939 6.31199 3.71992 6.31199ZM10.2799 6.31199C10.1059 6.31199 9.93903 6.24287 9.816 6.11985C9.69298 5.99683 9.62387 5.82997 9.62387 5.65599C9.62387 5.48201 9.69298 5.31516 9.816 5.19214C9.93903 5.06911 10.1059 5 10.2799 5C10.4538 5 10.6207 5.06911 10.7437 5.19214C10.8667 5.31516 10.9359 5.48201 10.9359 5.65599C10.9359 5.82997 10.8667 5.99683 10.7437 6.11985C10.6207 6.24287 10.4538 6.31199 10.2799 6.31199ZM6.99989 4.344C7.17387 4.344 7.34073 4.41312 7.46375 4.53614C7.58677 4.65916 7.65588 4.82602 7.65588 5V6.96798C7.65588 7.14196 7.58677 7.30882 7.46375 7.43184C7.34073 7.55486 7.17387 7.62398 6.99989 7.62398C6.82591 7.62398 6.65906 7.55486 6.53603 7.43184C6.41301 7.30882 6.3439 7.14196 6.3439 6.96798V5C6.3439 4.82602 6.41301 4.65916 6.53603 4.53614C6.65906 4.41312 6.82591 4.344 6.99989 4.344Z" fill="#8492A6"/>
</svg>
