<svg
              width="20"
              height="20"
              viewBox="0 0 20 20"
              fill="none"
              xmlns="http://www.w3.org/2000/svg"
            >
              <path
                fill-rule="evenodd"
                clip-rule="evenodd"
                d="M17 0H3C1.34315 0 0 1.34315 0 3V12C0 13.1046 0.89543 14 2 14V18.008C2 18.3868 2.214 18.733 2.55279 18.9024C2.89157 19.0718 3.29698 19.0353 3.6 18.808L10.042 14H17C18.6569 14 20 12.6569 20 11V3C20 1.34315 18.6569 0 17 0ZM17 12H9.378L4 16.013V13C4 12.4477 3.55228 12 3 12C2.44772 12 2 11.5523 2 11V3C2 2.44772 2.44772 2 3 2H17C17.5523 2 18 2.44772 18 3V11C18 11.5523 17.5523 12 17 12Z"
                fill="#C0CCDA"
              />
            </svg>