<svg width="15" height="13" viewBox="0 0 15 13" fill="none" xmlns="http://www.w3.org/2000/svg">
<path fill-rule="evenodd" clip-rule="evenodd" d="M0.974609 0.75C0.974609 1.16421 1.3104 1.5 1.72461 1.5H2.62161L3.59861 5.894C3.90432 7.2648 5.12014 8.24003 6.52461 8.241H12.3776C13.0651 8.24058 13.6643 7.77284 13.8316 7.106L14.9546 2.605C15.0659 2.15735 14.9651 1.68337 14.6812 1.3198C14.3973 0.956235 13.9619 0.743511 13.5006 0.743H6.21961C5.8054 0.743 5.46961 1.07879 5.46961 1.493C5.46961 1.90721 5.8054 2.243 6.21961 2.243H13.5016L12.3776 6.743H6.52461C5.82305 6.74335 5.21495 6.25737 5.06061 5.573L4.08461 1.173C3.9318 0.488893 3.32557 0.00183387 2.62461 0H1.72461C1.3104 0 0.974609 0.335786 0.974609 0.75ZM6.42961 12.466C5.79946 12.466 5.23135 12.0864 4.99021 11.5042C4.74906 10.922 4.88235 10.2519 5.32794 9.80633C5.77352 9.36074 6.44365 9.22745 7.02583 9.4686C7.60802 9.70974 7.98761 10.2778 7.98761 10.908C7.98761 11.7685 7.29007 12.466 6.42961 12.466ZM11.8836 12.466C11.2535 12.466 10.6854 12.0864 10.4442 11.5042C10.2031 10.922 10.3364 10.2519 10.7819 9.80633C11.2275 9.36074 11.8976 9.22745 12.4798 9.4686C13.062 9.70974 13.4416 10.2778 13.4416 10.908C13.4416 11.7685 12.7441 12.466 11.8836 12.466Z" fill="#8492A6"/>
</svg>
