<svg width="16" height="15" viewBox="0 0 16 15" fill="none" xmlns="http://www.w3.org/2000/svg">
<path fill-rule="evenodd" clip-rule="evenodd" d="M7.2 0.8V1.6H4.8V0.8C4.8 0.358172 4.44183 0 4 0C3.55817 0 3.2 0.358172 3.2 0.8V1.6H2.4C1.07452 1.6 0 2.67452 0 4V12C0 13.3255 1.07452 14.4 2.4 14.4H13.6C14.9255 14.4 16 13.3255 16 12V4C16 2.67452 14.9255 1.6 13.6 1.6H12.8V0.8C12.8 0.358172 12.4418 0 12 0C11.5582 0 11.2 0.358172 11.2 0.8V1.6H8.8V0.8C8.8 0.358172 8.44183 0 8 0C7.55817 0 7.2 0.358172 7.2 0.8ZM4.8 3.2H7.2V4C7.2 4.44183 7.55817 4.8 8 4.8C8.44183 4.8 8.8 4.44183 8.8 4V3.2H11.2V4C11.2 4.44183 11.5582 4.8 12 4.8C12.4418 4.8 12.8 4.44183 12.8 4V3.2H13.6C14.0418 3.2 14.4 3.55817 14.4 4V12C14.4 12.4418 14.0418 12.8 13.6 12.8H2.4C2.18783 12.8 1.98434 12.7157 1.83431 12.5657C1.68429 12.4157 1.6 12.2122 1.6 12V4C1.6 3.55817 1.95817 3.2 2.4 3.2H3.2V4C3.2 4.44183 3.55817 4.8 4 4.8C4.44183 4.8 4.8 4.44183 4.8 4V3.2ZM4 6.4V8H2.4V6.4H4ZM4 11.2V9.6H2.4V11.2H4ZM13.6 9.6V11.2H12V9.6H13.6ZM13.6 8V6.4H12V8H13.6ZM5.6 6.4H7.2V8H5.6V6.4ZM10.4 6.4H8.8V8H10.4V6.4ZM8.8 9.6H10.4V11.2H8.8V9.6ZM7.2 9.6H5.6V11.2H7.2V9.6Z" fill="#8492A6"/>
</svg>
